<svg xmlns="http://www.w3.org/2000/svg" viewBox="0 0 155.05 163.58">
    <defs>
        <style>
            .cls-1{isolation:isolate;}.cls-2{fill:#42b2fc;}.cls-3{fill:#fff;}.cls-4{fill:#0076c2;opacity:0.75;mix-blend-mode:multiply;}.cls-5{fill:#3cc4e7;}
        </style>
    </defs>
    <title>Ресурс 1</title>
    <g class="cls-1">
        <g id="Слой_2" data-name="Слой 2">
            <g id="OBJECTS">
                <text/>
                <path class="cls-2"
                      d="M138.11,62.48c0,.45,0,.89,0,1.34A60,60,0,0,1,23.63,87.68l-.12-.26A59.41,59.41,0,0,1,19,73,60,60,0,0,1,136.68,49.44c.16.7.31,1.42.44,2.14a57.41,57.41,0,0,1,.89,7.35C138.08,60.11,138.11,61.29,138.11,62.48Z"/>
                <path class="cls-3"
                      d="M67.53,27.64c6,3.93,8.25,4.12,13.3,3.88,6.28-.29,11.73-5.33,11.73-5.33S81.43,29,77.94,25.67a57.49,57.49,0,0,0,11.58-3.58c5.68-2.53,12.7-4.19,17.33,3s7.21,21.5,1.27,32c-3.51,6.23-5.69,6.9-4,15.61,1.8,9.24,1.27,18.87-3.81,28.13-3,5.53-11,13.17-13.61,10.89-2.09-1.82,5.44-12.52,3.4-25.72-2-12.75-6.81-19.55-12-19.29-5.46.27-12.71,11.66-12.5,20.5s2.85,12.77,2.43,16.13-7.27-1.79-12.75-10S51,72.18,53.53,65.45s-4.62-10.26-7.4-20.78,4.76-19.81,6.71-21.09C59.06,19.51,64.84,25.88,67.53,27.64Z"/>
                <path class="cls-4"
                      d="M138.11,62.48c0,.45,0,.89,0,1.34-12.24,13-36.88,27.07-65.29,33.81a134.18,134.18,0,0,1-40.43,3.69,59.8,59.8,0,0,1-8.86-13.9c13,2.44,30.32,1.7,49.29-2.8,27.67-6.57,51.77-19.46,64.32-33A60.21,60.21,0,0,1,138.11,62.48Z"/>
                <path class="cls-3"
                      d="M138,58.93c-13.37,10.94-35,21.83-59.46,27.46-21.84,5-41.45,4.82-54.92,1.29l-.12-.26A59.41,59.41,0,0,1,19,73c13.32,4.83,35.63,6.33,59.54.83,23.21-5.33,44.69-13.55,58.13-24.34.16.7.31,1.42.44,2.14A57.41,57.41,0,0,1,138,58.93Z"/>
                <path class="cls-5"
                      d="M78.55,80.77C44.43,88.62,9.83,84.15,7.44,70.18A13.84,13.84,0,0,0,5,77.44c0,14.47,32.93,23.24,73.55,13.89s73.54-33.26,73.54-47.73a11.6,11.6,0,0,0-1.41-6.13C148.15,51.88,112.66,72.92,78.55,80.77Z"/>
                <path class="cls-2"
                      d="M150.55,10.32h-5a.87.87,0,0,1-.87-.87V4.5a4.49,4.49,0,0,0-4.5-4.5h-.13a4.5,4.5,0,0,0-4.5,4.5v5a.87.87,0,0,1-.87.86h-5a4.51,4.51,0,0,0-4.5,4.5V15a4.5,4.5,0,0,0,4.5,4.5h5a.87.87,0,0,1,.87.87v5a4.49,4.49,0,0,0,4.5,4.5h.13a4.49,4.49,0,0,0,4.5-4.5v-5a.87.87,0,0,1,.87-.87h5a4.51,4.51,0,0,0,4.5-4.5v-.12A4.51,4.51,0,0,0,150.55,10.32Z"/>
            </g>
        </g>
    </g>
</svg>
